<svg width="21" height="20" viewBox="0 0 21 20" fill="none" xmlns="http://www.w3.org/2000/svg">
<g id="ri:coin-line">
<path id="Vector" d="M10.5041 3.33594C15.5666 3.33594 19.6707 5.57427 19.6707 8.33594V11.6693C19.6707 14.4309 15.5666 16.6693 10.5041 16.6693C5.53157 16.6693 1.48407 14.5101 1.34157 11.8168L1.3374 11.6693V8.33594C1.3374 5.57427 5.44157 3.33594 10.5041 3.33594ZM10.5041 13.3359C7.40407 13.3359 4.6624 12.4959 3.00407 11.2109V11.6693C3.00407 13.2376 6.2399 15.0026 10.5041 15.0026C14.6791 15.0026 17.8691 13.3109 17.9999 11.7676L18.0041 11.6693L18.0049 11.2109C16.3466 12.4959 13.6049 13.3359 10.5041 13.3359ZM10.5041 5.0026C6.2399 5.0026 3.00407 6.7676 3.00407 8.33594C3.00407 9.90427 6.2399 11.6693 10.5041 11.6693C14.7682 11.6693 18.0041 9.90427 18.0041 8.33594C18.0041 6.7676 14.7682 5.0026 10.5041 5.0026Z" fill="#94979E"/>
</g>
</svg>
