<svg width="21" height="20" viewBox="0 0 21 20" fill="none" xmlns="http://www.w3.org/2000/svg">
<g id="ph:link-bold">
<path id="Vector" d="M9.65479 14.7454C9.74219 14.8325 9.81154 14.936 9.85886 15.05C9.90617 15.1639 9.93053 15.2861 9.93053 15.4095C9.93053 15.5329 9.90617 15.655 9.85886 15.769C9.81154 15.883 9.74219 15.9864 9.65479 16.0735L9.25479 16.4735C8.83018 16.8997 8.32529 17.2375 7.76932 17.4674C7.21335 17.6972 6.61733 17.8145 6.01573 17.8126C5.10974 17.8129 4.22402 17.5445 3.47062 17.0413C2.71723 16.5381 2.13001 15.8227 1.78326 14.9857C1.43652 14.1487 1.34582 13.2276 1.52265 12.3391C1.69948 11.4505 2.13589 10.6343 2.77667 9.99386L5.49151 7.27901C6.06896 6.70165 6.79023 6.28912 7.58066 6.08413C8.37109 5.87915 9.20194 5.88915 9.9872 6.11311C10.7725 6.33708 11.4836 6.76686 12.047 7.35796C12.6104 7.94906 13.0055 8.68 13.1915 9.47511C13.2223 9.596 13.2287 9.72183 13.2102 9.84521C13.1918 9.9686 13.1489 10.0871 13.0841 10.1937C13.0193 10.3003 12.9338 10.3928 12.8328 10.466C12.7317 10.5392 12.6171 10.5914 12.4956 10.6197C12.3741 10.648 12.2482 10.6517 12.1252 10.6307C12.0022 10.6097 11.8847 10.5644 11.7794 10.4974C11.6742 10.4303 11.5834 10.343 11.5124 10.2404C11.4413 10.1379 11.3915 10.0222 11.3657 9.90011C11.2554 9.43076 11.0216 8.9994 10.6887 8.65064C10.3558 8.30188 9.93574 8.04836 9.47202 7.9163C9.0083 7.78425 8.51773 7.77844 8.05101 7.89948C7.5843 8.02052 7.15838 8.26401 6.81729 8.60479L4.10245 11.3196C3.72402 11.6978 3.46622 12.1796 3.36165 12.7043C3.25709 13.2289 3.31046 13.7728 3.51501 14.2671C3.71955 14.7614 4.0661 15.184 4.51081 15.4813C4.95552 15.7787 5.47842 15.9375 6.01339 15.9376C6.36884 15.9387 6.72097 15.8692 7.04939 15.7332C7.37781 15.5972 7.67599 15.3974 7.92667 15.1454L8.32589 14.7454C8.413 14.6579 8.51654 14.5885 8.63057 14.5411C8.74459 14.4937 8.86686 14.4693 8.99034 14.4693C9.11382 14.4693 9.23608 14.4937 9.35011 14.5411C9.46414 14.5885 9.56768 14.6579 9.65479 14.7454ZM18.2212 3.52901C17.3619 2.67004 16.1967 2.1875 14.9817 2.1875C13.7668 2.1875 12.6015 2.67004 11.7423 3.52901L11.3431 3.92823C11.167 4.10435 11.068 4.34322 11.068 4.59229C11.068 4.84137 11.167 5.08024 11.3431 5.25636C11.5192 5.43248 11.7581 5.53142 12.0071 5.53142C12.2562 5.53142 12.4951 5.43248 12.6712 5.25636L13.0712 4.85636C13.5788 4.34872 14.2673 4.06353 14.9853 4.06353C15.7032 4.06353 16.3917 4.34872 16.8993 4.85636C17.407 5.364 17.6922 6.05251 17.6922 6.77042C17.6922 7.48833 17.407 8.17684 16.8993 8.68448L14.1798 11.3954C13.9291 11.6474 13.6309 11.8472 13.3025 11.9832C12.9741 12.1192 12.622 12.1887 12.2665 12.1876C11.6567 12.1872 11.065 11.9808 10.5872 11.6019C10.1095 11.2229 9.77376 10.6938 9.63448 10.1001C9.57812 9.85789 9.42785 9.64798 9.21672 9.51656C9.0056 9.38514 8.75092 9.34297 8.5087 9.39933C8.26648 9.45568 8.05657 9.60596 7.92515 9.81708C7.79373 10.0282 7.75156 10.2829 7.80792 10.5251C8.04316 11.5305 8.61112 12.4269 9.41971 13.069C10.2283 13.7111 11.2301 14.0612 12.2626 14.0626H12.2665C12.8684 14.0643 13.4646 13.9466 14.0207 13.7163C14.5769 13.4861 15.0818 13.1478 15.5064 12.7212L18.2212 10.0064C18.6466 9.58108 18.984 9.07618 19.2142 8.52048C19.4444 7.96478 19.5629 7.36918 19.5629 6.76769C19.5629 6.16619 19.4444 5.57059 19.2142 5.01489C18.984 4.45919 18.6466 3.95429 18.2212 3.52901Z" fill="#94979E"/>
</g>
</svg>
