<svg width="21" height="20" viewBox="0 0 21 20" fill="none" xmlns="http://www.w3.org/2000/svg">
<g id="tabler:user-filled">
<path id="Vector" d="M10.5001 1.66675C11.3242 1.66675 12.1298 1.91112 12.815 2.36896C13.5002 2.8268 14.0342 3.47754 14.3496 4.2389C14.6649 5.00026 14.7475 5.83804 14.5867 6.64629C14.4259 7.45455 14.0291 8.19697 13.4464 8.77969C12.8636 9.36241 12.1212 9.75925 11.313 9.92002C10.5047 10.0808 9.66693 9.99828 8.90557 9.68291C8.14421 9.36755 7.49346 8.8335 7.03562 8.14829C6.57779 7.46309 6.33341 6.6575 6.33341 5.83342L6.33758 5.65258C6.38418 4.57987 6.84309 3.56656 7.6186 2.82396C8.39411 2.08137 9.42636 1.66681 10.5001 1.66675ZM12.1667 11.6667C13.2718 11.6667 14.3316 12.1057 15.113 12.8871C15.8944 13.6685 16.3334 14.7283 16.3334 15.8334V16.6667C16.3334 17.1088 16.1578 17.5327 15.8453 17.8453C15.5327 18.1578 15.1088 18.3334 14.6667 18.3334H6.33341C5.89139 18.3334 5.46746 18.1578 5.1549 17.8453C4.84234 17.5327 4.66675 17.1088 4.66675 16.6667V15.8334C4.66675 14.7283 5.10573 13.6685 5.88714 12.8871C6.66854 12.1057 7.72835 11.6667 8.83342 11.6667H12.1667Z" fill="#94979E"/>
</g>
</svg>
